<?xml version="1.0" encoding="UTF-8"?>
<svg id="_Слой_2" data-name="Слой 2" xmlns="http://www.w3.org/2000/svg" viewBox="0 0 622.18 90.65">
  <defs>
    <style>
      .cls-1 {
        fill: #363636;
      }

      .cls-2 {
        fill: #f65f21;
      }

      .cls-3 {
        fill: #fff;
        font-family: Inter-Black, Inter;
        font-size: 43.11px;
        font-weight: 800;
      }
    </style>
  </defs>
  <g id="_Слой_3" data-name="Слой 3">
    <g>
      <path class="cls-1" d="m147.2,83.95h-29.47V7.37h29.17c7.88,0,14.69,1.53,20.44,4.58s10.18,7.44,13.31,13.16c3.13,5.72,4.69,12.57,4.69,20.55s-1.56,14.83-4.67,20.55c-3.12,5.72-7.53,10.11-13.24,13.16-5.71,3.05-12.45,4.58-20.23,4.58Zm-8.68-17.65h7.93c3.79,0,7.02-.61,9.7-1.83,2.68-1.22,4.72-3.33,6.13-6.32,1.41-2.99,2.11-7.15,2.11-12.49s-.72-9.5-2.15-12.49c-1.43-2.99-3.53-5.1-6.28-6.32-2.75-1.22-6.13-1.83-10.12-1.83h-7.33v41.28Z"/>
      <path class="cls-1" d="m269.11,45.66c0,8.53-1.66,15.71-4.97,21.56s-7.79,10.27-13.42,13.28c-5.63,3-11.92,4.51-18.85,4.51s-13.28-1.51-18.9-4.54c-5.62-3.03-10.08-7.47-13.39-13.31-3.3-5.85-4.96-13.01-4.96-21.48s1.65-15.71,4.96-21.56c3.3-5.85,7.76-10.27,13.39-13.27,5.62-3,11.92-4.51,18.9-4.51s13.21,1.5,18.85,4.51c5.63,3,10.11,7.43,13.42,13.27,3.32,5.85,4.97,13.03,4.97,21.56Zm-21.39,0c0-4.59-.6-8.46-1.81-11.61-1.21-3.15-2.99-5.55-5.35-7.18-2.36-1.63-5.25-2.45-8.69-2.45s-6.34.82-8.69,2.45-4.14,4.03-5.35,7.18c-1.21,3.15-1.81,7.02-1.81,11.61s.6,8.46,1.81,11.61c1.21,3.15,2.99,5.55,5.35,7.18s5.25,2.45,8.69,2.45,6.34-.82,8.69-2.45c2.36-1.63,4.14-4.03,5.35-7.18,1.21-3.15,1.81-7.02,1.81-11.61Z"/>
      <path class="cls-1" d="m350.18,36.09h-21.09c-.15-1.74-.54-3.33-1.18-4.75s-1.51-2.65-2.62-3.68c-1.11-1.03-2.45-1.83-4.02-2.39s-3.35-.84-5.35-.84c-3.49,0-6.44.85-8.84,2.54-2.41,1.7-4.23,4.13-5.46,7.29-1.23,3.17-1.85,6.97-1.85,11.41,0,4.69.63,8.61,1.89,11.76,1.26,3.15,3.09,5.52,5.48,7.1,2.39,1.58,5.27,2.37,8.64,2.37,1.92,0,3.64-.24,5.16-.73,1.52-.49,2.84-1.19,3.96-2.11s2.04-2.04,2.75-3.35c.71-1.31,1.19-2.79,1.44-4.43l21.09.15c-.25,3.24-1.16,6.54-2.73,9.89-1.57,3.35-3.8,6.44-6.68,9.27-2.88,2.83-6.44,5.1-10.68,6.82-4.24,1.72-9.16,2.58-14.77,2.58-7.03,0-13.33-1.51-18.9-4.52-5.57-3.02-9.97-7.45-13.2-13.31-3.23-5.86-4.84-13.03-4.84-21.5s1.65-15.71,4.94-21.56c3.29-5.85,7.73-10.27,13.31-13.27,5.58-3,11.82-4.51,18.7-4.51,4.84,0,9.29.66,13.35,1.98,4.06,1.32,7.63,3.25,10.69,5.78,3.07,2.53,5.53,5.64,7.4,9.33,1.87,3.69,3,7.92,3.4,12.68Z"/>
      <path class="cls-1" d="m365.73,7.37h5.09l29.5,69.85h.52l29.5-69.85h5.09v76.58h-4.49V18.47h-.45l-27.71,65.48h-4.41l-27.71-65.48h-.45v65.48h-4.49V7.37Z"/>
      <path class="cls-1" d="m462.25,7.37v76.58h-4.67V7.37h4.67Z"/>
      <path class="cls-1" d="m542.91,7.37v76.58h-4.56l-48.84-68.1h-.45v68.1h-4.67V7.37h4.6l48.84,68.17h.45V7.37h4.64Z"/>
      <path class="cls-1" d="m586.29,83.95h-21.24V7.37h22.89c7.18,0,13.32,1.52,18.44,4.56,5.11,3.04,9.03,7.4,11.76,13.07,2.73,5.67,4.08,12.47,4.06,20.4-.02,8.1-1.45,15.03-4.26,20.77-2.82,5.75-6.89,10.15-12.23,13.2-5.34,3.05-11.8,4.58-19.41,4.58Zm-16.57-4.34h16.38c6.83,0,12.59-1.37,17.28-4.1,4.69-2.73,8.23-6.65,10.64-11.76,2.4-5.11,3.6-11.23,3.57-18.36,0-7.03-1.16-13.06-3.48-18.08-2.32-5.02-5.69-8.88-10.12-11.57-4.42-2.69-9.84-4.04-16.25-4.04h-18.02v67.91Z"/>
    </g>
    <path class="cls-2" d="m82.29,11.65c2.71,0,4.91,2.2,4.91,4.91v66.17c0,2.71-2.2,4.91-4.91,4.91H16.12c-2.71,0-4.91-2.2-4.91-4.91V16.57c0-2.71,2.2-4.91,4.91-4.91h66.17m0-3H16.12c-4.37,0-7.91,3.54-7.91,7.91v66.17c0,4.37,3.54,7.91,7.91,7.91h66.17c4.37,0,7.91-3.54,7.91-7.91V16.57c0-4.37-3.54-7.91-7.91-7.91h0Z"/>
    <rect class="cls-2" width="82" height="82" rx="7.91" ry="7.91"/>
    <text class="cls-3" transform="translate(5.23 56.87)"><tspan x="0" y="0">DM</tspan></text>
  </g>
</svg>