<?xml version="1.0" encoding="UTF-8"?>
<svg id="_Слой_2" data-name="Слой 2" xmlns="http://www.w3.org/2000/svg" viewBox="0 0 710.24 90.94">
  <defs>
    <style>
      .cls-1 {
        fill: #363636;
      }

      .cls-2 {
        fill: #f65f21;
      }

      .cls-3 {
        fill: #fff;
        font-family: Inter-Black, Inter;
        font-size: 43.11px;
        font-weight: 800;
      }
    </style>
  </defs>
  <g id="_Слой_3" data-name="Слой 3">
    <g>
      <path class="cls-1" d="m163.59,89.73h-33.91V1.59h33.57c9.07,0,16.91,1.76,23.52,5.27s11.72,8.56,15.32,15.15c3.6,6.58,5.4,14.47,5.4,23.65s-1.79,17.06-5.38,23.65c-3.59,6.58-8.67,11.63-15.23,15.15-6.57,3.52-14.33,5.27-23.28,5.27Zm-9.98-20.31h9.12c4.36,0,8.08-.7,11.17-2.11,3.08-1.41,5.44-3.83,7.06-7.27,1.62-3.44,2.43-8.23,2.43-14.37s-.82-10.93-2.47-14.38c-1.65-3.44-4.06-5.87-7.23-7.27-3.17-1.41-7.05-2.11-11.64-2.11h-8.44v47.51Z"/>
      <path class="cls-1" d="m303.89,45.66c0,9.81-1.91,18.08-5.72,24.81s-8.97,11.82-15.45,15.28c-6.48,3.46-13.71,5.19-21.69,5.19s-15.29-1.74-21.75-5.23c-6.47-3.49-11.61-8.59-15.41-15.32-3.8-6.73-5.7-14.97-5.7-24.72s1.9-18.08,5.7-24.81c3.8-6.73,8.94-11.82,15.41-15.28,6.47-3.46,13.72-5.19,21.75-5.19s15.21,1.73,21.69,5.19c6.48,3.46,11.63,8.55,15.45,15.28,3.82,6.73,5.72,15,5.72,24.81Zm-24.62,0c0-5.28-.7-9.73-2.09-13.36-1.39-3.63-3.44-6.38-6.15-8.26-2.71-1.88-6.05-2.82-10.01-2.82s-7.29.94-10.01,2.82-4.76,4.63-6.15,8.26c-1.39,3.63-2.09,8.08-2.09,13.36s.7,9.73,2.09,13.36c1.39,3.63,3.44,6.38,6.15,8.26s6.05,2.82,10.01,2.82,7.29-.94,10.01-2.82c2.71-1.88,4.76-4.63,6.15-8.26,1.39-3.63,2.09-8.08,2.09-13.36Z"/>
      <path class="cls-1" d="m397.19,34.64h-24.27c-.17-2.01-.62-3.83-1.36-5.47s-1.74-3.05-3.01-4.24c-1.28-1.19-2.82-2.11-4.63-2.75s-3.86-.97-6.15-.97c-4.02,0-7.41.98-10.18,2.93-2.77,1.95-4.86,4.75-6.28,8.39-1.42,3.64-2.13,8.02-2.13,13.13,0,5.39.72,9.91,2.17,13.54,1.45,3.63,3.55,6.35,6.31,8.18,2.75,1.82,6.07,2.73,9.94,2.73,2.21,0,4.19-.28,5.94-.84,1.75-.56,3.27-1.37,4.56-2.43s2.35-2.35,3.16-3.85c.82-1.51,1.37-3.21,1.66-5.1l24.27.17c-.29,3.73-1.33,7.52-3.14,11.38-1.81,3.86-4.37,7.42-7.68,10.67-3.31,3.26-7.41,5.88-12.29,7.85-4.88,1.98-10.54,2.97-17,2.97-8.09,0-15.34-1.74-21.75-5.21-6.41-3.47-11.48-8.58-15.19-15.32-3.72-6.74-5.57-14.99-5.57-24.75s1.89-18.08,5.68-24.81c3.79-6.73,8.89-11.82,15.32-15.28,6.43-3.46,13.6-5.19,21.52-5.19,5.57,0,10.69.76,15.36,2.28,4.68,1.52,8.78,3.74,12.31,6.65,3.53,2.91,6.37,6.49,8.52,10.74,2.15,4.25,3.46,9.11,3.92,14.59Z"/>
      <path class="cls-1" d="m415.1,1.59h5.85l33.96,80.39h.6L489.46,1.59h5.85v88.14h-5.16V14.37h-.52l-31.89,75.36h-5.08l-31.89-75.36h-.52v75.36h-5.16V1.59Z"/>
      <path class="cls-1" d="m526.17,1.59v88.14h-5.38V1.59h5.38Z"/>
      <path class="cls-1" d="m619,1.59v88.14h-5.25l-56.21-78.37h-.52v78.37h-5.38V1.59h5.29l56.21,78.46h.52V1.59h5.34Z"/>
      <path class="cls-1" d="m668.93,89.73h-24.45V1.59h26.34c8.26,0,15.33,1.75,21.22,5.25,5.88,3.5,10.39,8.51,13.54,15.04,3.14,6.53,4.7,14.35,4.67,23.48-.03,9.33-1.66,17.29-4.91,23.91s-7.93,11.68-14.07,15.19c-6.14,3.52-13.59,5.27-22.34,5.27Zm-19.07-4.99h18.85c7.86,0,14.49-1.57,19.88-4.71,5.39-3.14,9.47-7.65,12.24-13.54,2.77-5.88,4.14-12.92,4.11-21.13,0-8.09-1.33-15.03-4-20.81-2.67-5.78-6.55-10.22-11.64-13.32-5.09-3.1-11.33-4.65-18.7-4.65h-20.74v78.16Z"/>
    </g>
    <path class="cls-2" d="m82.29,11.65c2.71,0,4.91,2.2,4.91,4.91v66.17c0,2.71-2.2,4.91-4.91,4.91H16.12c-2.71,0-4.91-2.2-4.91-4.91V16.57c0-2.71,2.2-4.91,4.91-4.91h66.17m0-3H16.12c-4.37,0-7.91,3.54-7.91,7.91v66.17c0,4.37,3.54,7.91,7.91,7.91h66.17c4.37,0,7.91-3.54,7.91-7.91V16.57c0-4.37-3.54-7.91-7.91-7.91h0Z"/>
    <rect class="cls-2" width="82" height="82" rx="7.91" ry="7.91"/>
    <text class="cls-3" transform="translate(5.23 56.87)"><tspan x="0" y="0">DM</tspan></text>
  </g>
</svg>