<?xml version="1.0" standalone="no"?>
<!DOCTYPE svg PUBLIC "-//W3C//DTD SVG 20010904//EN"
 "http://www.w3.org/TR/2001/REC-SVG-20010904/DTD/svg10.dtd">
<svg version="1.0" xmlns="http://www.w3.org/2000/svg"
 width="200.000000pt" height="200.000000pt" viewBox="0 0 200.000000 200.000000"
 preserveAspectRatio="xMidYMid meet">
<metadata>
Created by potrace 1.14, written by Peter Selinger 2001-2017
</metadata>
<g transform="translate(0.000000,200.000000) scale(0.100000,-0.100000)"
fill="#000000" stroke="none">
<path d="M140 1987 c-48 -15 -113 -83 -128 -133 -9 -31 -12 -222 -12 -770 0
-715 0 -728 21 -770 25 -54 77 -100 128 -115 36 -11 39 -15 44 -54 6 -54 38
-100 87 -125 38 -19 62 -20 809 -20 519 0 779 3 798 11 38 14 83 57 99 96 12
27 14 171 14 803 0 748 -1 772 -20 810 -25 49 -71 81 -125 87 -39 5 -43 8 -54
44 -15 51 -61 103 -115 128 -42 21 -54 21 -777 20 -508 -1 -745 -4 -769 -12z
m598 -231 c62 -20 124 -72 155 -130 19 -36 22 -57 22 -171 0 -117 -2 -135 -24
-178 -28 -58 -83 -101 -160 -125 -45 -14 -96 -17 -266 -17 l-210 0 -3 310 c-1
170 0 316 3 323 8 22 411 11 483 -12z m1143 -26 c50 -27 49 -14 49 -824 0
-564 -3 -762 -12 -781 -26 -57 -2 -55 -823 -55 -655 0 -760 2 -785 15 -34 18
-50 43 -50 79 l0 26 690 0 c754 0 730 -2 794 58 16 15 37 45 47 67 17 38 19
80 19 733 l0 692 26 0 c14 0 34 -5 45 -10z m-755 -588 c6 -4 39 -59 74 -122
34 -63 63 -116 64 -118 2 -1 31 51 66 115 35 65 68 121 74 126 6 4 56 6 111 5
l100 -3 0 -320 0 -320 -102 -3 c-122 -3 -112 -17 -116 168 l-2 125 -35 -65
-35 -65 -60 0 -60 0 -37 70 -37 70 -1 -140 c0 -77 -4 -146 -8 -153 -6 -9 -35
-12 -108 -10 l-99 3 -3 310 c-1 170 0 315 3 322 5 14 191 19 211 5z"/>
<path d="M490 1455 l0 -145 64 0 c49 0 69 5 90 21 25 20 26 24 26 124 0 100
-1 104 -26 124 -21 16 -41 21 -90 21 l-64 0 0 -145z"/>
</g>
</svg>
